<svg width="60" height="60" viewBox="0 0 60 60" fill="none" xmlns="http://www.w3.org/2000/svg">
<path d="M39.5675 20.2222C39.5675 22.8155 38.5595 25.3025 36.7652 27.1362C34.971 28.9698 32.5374 30 30 30C27.4625 30 25.029 28.9698 23.2348 27.1362C21.4405 25.3025 20.4325 22.8155 20.4325 20.2222M9.98776 18.7589L8.31345 39.2923C7.95377 43.7033 7.77393 45.9088 8.50352 47.6102C9.14455 49.1051 10.2552 50.3387 11.6596 51.1156C13.258 52 15.4236 52 19.7548 52H40.2452C44.5764 52 46.742 52 48.3404 51.1156C49.7448 50.3387 50.8555 49.1051 51.4965 47.6102C52.2261 45.9088 52.0462 43.7033 51.6865 39.2923L50.0122 18.7589C49.7028 14.9636 49.548 13.0659 48.7256 11.6296C48.0014 10.3649 46.9231 9.35081 45.6296 8.71829C44.1608 8 42.2975 8 38.5709 8L30 8L21.4291 8C17.7025 8 15.8392 8 14.3704 8.71829C13.0769 9.3508 11.9986 10.3649 11.2744 11.6296C10.452 13.0659 10.2972 14.9636 9.98776 18.7589Z" stroke="#191919" stroke-width="1.5" stroke-linecap="round" stroke-linejoin="round"/>
<circle cx="41" cy="42" r="8" fill="#E3BE8A"/>
<path d="M41 39V46M41 46L44 43.0214M41 46L38 43.0214" stroke="#191919" stroke-width="1.5" stroke-linecap="round" stroke-linejoin="round"/>
</svg>
