<svg width="358" height="240" viewBox="0 0 358 240" fill="none" xmlns="http://www.w3.org/2000/svg">
<rect width="358" height="240" fill="white"/>
<g clip-path="url(#clip0_40006119_13966)">
<path d="M70.7875 93.1909C72.9995 90.5683 74.3958 88.1109 73.9061 87.7021C73.4165 87.2934 71.2264 89.0881 69.0144 91.7108C66.8024 94.3334 65.4062 96.7908 65.8958 97.1996C66.3854 97.6083 68.5755 95.8136 70.7875 93.1909Z" stroke="#191919" stroke-miterlimit="10"/>
<path d="M65.9038 97.1999L67.5333 99.7513C67.9314 100.378 68.7276 100.571 69.3387 100.138L69.4035 100.092L77.4306 90.5956C77.7546 89.9232 77.4491 89.1219 76.7547 88.8455L73.9216 87.7034" stroke="#191919" stroke-miterlimit="10"/>
<path d="M69.3945 100.101L71.1536 103.215C71.1536 103.215 71.8295 104.117 72.9035 102.892C73.9775 101.667 80.8379 93.1654 80.8379 93.1654C80.8379 93.1654 81.1157 92.5943 81.0231 92.014C80.9583 91.6087 80.6343 91.2864 80.2269 91.2035L77.4216 90.6047" stroke="#191919" stroke-miterlimit="10"/>
<path d="M72.5518 102.782L74.3109 105.895C74.3109 105.895 74.9867 106.798 76.0607 105.573C77.1347 104.348 83.9952 95.8458 83.9952 95.8458C83.9952 95.8458 84.2729 95.2747 84.1803 94.6944C84.1155 94.2892 83.7915 93.9668 83.3841 93.8839L80.5788 93.2852" stroke="#191919" stroke-miterlimit="10"/>
<path d="M76.0513 105.573L78.3381 111.597C78.5048 112.048 78.801 112.444 79.1806 112.739L104.456 132.349C104.938 132.717 105.623 132.644 106.002 132.165L106.687 131.308L116.075 136.881C116.89 137.36 117.936 137.175 118.529 136.439L123.297 130.553C123.436 130.387 123.538 130.194 123.612 129.991L124.408 127.771C124.658 127.08 124.538 126.325 124.103 125.735L116.464 115.539L90.1148 94.8325L84.1617 94.6943" stroke="#191919" stroke-miterlimit="10"/>
<path d="M69.7658 92.5619C70.7025 91.4513 71.2936 90.4105 71.086 90.2372C70.8784 90.0639 69.9507 90.8237 69.014 91.9343C68.0772 93.045 67.4862 94.0858 67.6938 94.2591C67.9014 94.4324 68.829 93.6726 69.7658 92.5619Z" stroke="#191919" stroke-width="0.5" stroke-miterlimit="10"/>
<path d="M84.1895 96.4353L89.3001 99.2631L115.529 119.665" stroke="#191919" stroke-width="0.5" stroke-miterlimit="10"/>
<path d="M106.706 131.308L115.113 121.369C115.252 121.213 115.335 121.01 115.353 120.807L115.918 115.097" stroke="#191919" stroke-miterlimit="10"/>
<path d="M115.659 117.105L124.426 127.762" stroke="#191919" stroke-width="0.5" stroke-miterlimit="10"/>
<path d="M122.973 130.967L113.826 122.898" stroke="#191919" stroke-width="0.5" stroke-miterlimit="10"/>
<path d="M115.316 121.001L123.816 129.475" stroke="#191919" stroke-width="0.5" stroke-miterlimit="10"/>
<path d="M90.4575 121.48L101.475 108.732L101.725 103.942" stroke="#191919" stroke-width="0.5" stroke-miterlimit="10"/>
<path d="M111.604 134.117C112.418 141.422 114.862 144.378 114.89 144.406L114.964 144.498C119.242 149.841 123.454 147.381 124.426 146.69C125.565 145.318 126.037 143.9 125.871 142.361C125.482 138.843 121.769 135.37 120.371 134.338" stroke="#191919" stroke-miterlimit="10"/>
<path d="M46.4707 40.4969C46.6929 40.2114 51.9702 33.4597 57.4419 30.0701C62.6637 26.837 70.5519 21.946 86.0134 25.9988C101.818 30.1438 113.974 43.7668 116.983 60.7151C119.973 77.5251 115.252 98.646 114.89 100.212C114.779 100.829 113.835 106.263 112.955 112.72" stroke="#191919" stroke-miterlimit="10"/>
<path d="M108.734 109.451C109.521 103.97 110.261 99.7606 110.336 99.3553L110.363 99.2356C110.41 99.0237 115.298 77.6818 112.419 61.5165C109.715 46.3368 98.8921 34.1415 84.8285 30.4571C71.302 26.9108 64.7007 31.0005 59.8863 33.9849C55.1275 36.9324 50.1835 43.2604 50.1372 43.3248" stroke="#191919" stroke-miterlimit="10"/>
<path d="M123.121 130.636C123.39 130.838 129.778 135.591 130.473 141.846C130.797 144.756 129.889 147.455 127.778 149.887L127.464 150.191C125.473 151.757 123.334 152.539 121.094 152.539C120.714 152.539 120.325 152.521 119.937 152.466C115.196 151.904 111.817 147.943 111.372 147.391C110.798 146.718 107.558 142.573 106.854 132.929C106.817 132.423 106.79 131.879 106.78 131.308" stroke="#191919" stroke-miterlimit="10"/>
<path d="M51.183 49.9934L39.9248 65.864C39.5174 66.4258 38.7304 66.564 38.1657 66.1587L28.9998 59.7294C28.4258 59.3242 28.2962 58.5412 28.6943 57.9701L30.259 55.7687L30.9719 56.2753C31.1941 56.4319 31.444 56.5056 31.694 56.5056C32.0829 56.5056 32.4717 56.3214 32.7124 55.9806C33.1106 55.4187 32.9809 54.645 32.4162 54.2489L31.694 53.7423L39.9525 42.1088C41.4802 39.9626 44.4614 39.4468 46.6186 40.9666L50.035 43.3615C52.1922 44.8813 52.7106 47.8473 51.183 49.9934Z" stroke="#191919" stroke-miterlimit="10"/>
<path d="M29.5093 56.8279L37.7771 62.6124L48.3502 48.5933C48.3502 48.5933 48.8131 42.6798 41.2675 40.8652" stroke="#191919" stroke-width="0.5" stroke-miterlimit="10"/>
<path d="M47.2074 55.6195L35.8818 47.6711L34.6117 49.4625L45.9372 57.4108L47.2074 55.6195Z" fill="#191919"/>
<path d="M33.7122 63.0361L30.0459 68.2956" stroke="#191919" stroke-linecap="round" stroke-linejoin="round"/>
</g>
<path d="M22 117L22.8997 120.668C23.2546 122.115 24.3846 123.245 25.8317 123.6L29.5 124.5L25.8317 125.4C24.3846 125.755 23.2546 126.885 22.8997 128.332L22 132L21.1003 128.332C20.7454 126.885 19.6154 125.755 18.1683 125.4L14.5 124.5L18.1682 123.6C19.6154 123.245 20.7454 122.115 21.1003 120.668L22 117Z" fill="#E3BE8A"/>
<path d="M136.5 35L137.4 38.6683C137.755 40.1155 138.885 41.2454 140.332 41.6004L144 42.5L140.332 43.3997C138.885 43.7547 137.755 44.8846 137.4 46.3318L136.5 50.0001L135.6 46.3318C135.245 44.8846 134.115 43.7547 132.668 43.3997L129 42.5L132.668 41.6004C134.115 41.2454 135.245 40.1155 135.6 38.6683L136.5 35Z" fill="#E3BE8A"/>
<path d="M232.5 185L233.4 188.668C233.755 190.115 234.885 191.245 236.332 191.6L240 192.5L236.332 193.4C234.885 193.755 233.755 194.885 233.4 196.332L232.5 200L231.6 196.332C231.245 194.885 230.115 193.755 228.668 193.4L225 192.5L228.668 191.6C230.115 191.245 231.245 190.115 231.6 188.668L232.5 185Z" fill="#E3BE8A"/>
<g clip-path="url(#clip1_40006119_13966)">
<path d="M178.642 75.0586C178.642 75.0586 163.282 76.8679 159.223 80.0156C157.733 81.1147 157.628 82.6549 157.628 82.6549L156.018 99.6197C156.018 99.6197 158.063 103.485 170.03 105.055C181.997 106.625 203.61 106.588 221.456 106.76C239.302 106.932 289.627 106.76 289.627 106.76C289.627 106.76 308.402 106.887 316.393 104.48C324.383 102.072 327.019 100.255 327.019 100.255L325.312 82.2587C325.312 82.2587 325.522 80.9278 323.05 79.6269C320.579 78.3259 316.67 77.0698 312.903 76.5091C309.136 75.9483 294.128 73.1744 283.052 72.823C271.976 72.4716 241.511 72.2473 241.511 72.2473L200.689 72.9726C200.21 72.98 199.723 73.0025 199.244 73.0473C195.949 73.3314 182.349 74.5202 178.657 75.0436L178.642 75.0586Z" stroke="#191919" stroke-miterlimit="10"/>
<path d="M156.018 99.6199C156.018 99.6199 150.079 113.287 156.018 125.362C161.957 137.437 171.969 144.63 171.969 144.63C171.969 144.63 183.966 153.273 200.756 154.208C217.547 155.142 243.383 154.208 243.383 154.208L277.293 154.626C277.293 154.626 298.382 154.335 311.877 144.106C325.372 133.878 328.622 119.904 328.622 119.904C328.622 119.904 330.434 113.325 329.213 107.433C327.993 101.541 327.019 100.263 327.019 100.263" stroke="#191919" stroke-miterlimit="10"/>
<path d="M157.733 82.1167C157.733 82.1167 155.905 86.5504 155.059 94.3412C154.213 102.132 153.831 107.627 153.831 107.627" stroke="#191919" stroke-miterlimit="10"/>
<path d="M325.185 81.6233C325.185 81.6233 327.386 86.9243 327.866 92.6216C328.345 98.3189 328.809 105.773 328.809 105.773" stroke="#191919" stroke-miterlimit="10"/>
<path d="M168.996 76.6513C168.996 76.6513 163.102 74.7373 160.833 72.6886C159.006 70.9914 158.662 70.1391 158.662 70.1391L157.426 44.4714C157.381 43.4994 157.718 42.5499 158.369 41.8246C159.493 40.576 161.44 38.5424 163.694 36.8152C167.244 34.0937 173.272 30.2282 182.281 27.6338C188.752 25.6674 195.859 24.845 195.859 24.845L279.382 24.3665C279.382 24.3665 292.87 24.5609 301.407 27.7459C309.945 30.931 316.041 33.7946 320.916 38.333C323.694 40.92 324.713 42.0938 325.08 42.6097C325.222 42.8116 325.289 43.0583 325.274 43.305L324.151 69.8849C324.151 69.8849 322.301 72.9204 318.714 74.513C315.127 76.1055 313.457 76.6065 313.457 76.6065" stroke="#191919" stroke-miterlimit="10"/>
<path d="M159.553 40.561C159.553 40.561 164.593 36.1347 176.702 34.8712C188.812 33.6076 199.356 33.5029 199.356 33.5029H290.444C290.444 33.5029 308.702 34.0637 315.09 36.4712C321.478 38.8787 323.799 41.1591 323.799 41.1591" stroke="#191919" stroke-miterlimit="10"/>
<path d="M171.243 76.2026C171.243 76.2026 163.777 72.8305 162.219 71.9932C160.661 71.1558 160.092 69.0099 160.092 69.0099L159.081 44.1498L159.313 43.2974C159.478 42.6993 159.845 42.1834 160.362 41.832C162.219 40.5759 167.356 37.7198 176.695 36.7403C188.804 35.4767 199.349 35.3721 199.349 35.3721H290.436C290.436 35.3721 308.694 35.9328 315.082 38.3403C321.47 40.7478 323.792 43.0283 323.792 43.0283L322.571 69.78C322.571 69.78 318.31 74.9988 307.915 75.7091" stroke="#191919" stroke-miterlimit="10"/>
<path d="M164.361 39.7236L165.304 64.5016C165.304 64.5016 165.237 66.1091 167.027 67.3801C168.817 68.6511 171.453 70.2512 177.249 71.425C183.046 72.5989 189.643 72.883 189.643 72.883L210.807 72.7933" stroke="#191919" stroke-miterlimit="10"/>
<path d="M318.804 39.7236L317.86 64.5016C317.86 64.5016 317.928 66.1091 316.138 67.3801C314.348 68.6511 311.712 70.2512 305.916 71.425C300.119 72.5989 293.522 72.883 293.522 72.883L272 72.5" stroke="#191919" stroke-miterlimit="10"/>
<path d="M299.707 41.1665H183.824C175.697 41.1665 169.108 47.7442 169.108 55.8583C169.108 63.9724 175.697 70.5501 183.824 70.5501H299.707C307.834 70.5501 314.423 63.9724 314.423 55.8583C314.423 47.7442 307.834 41.1665 299.707 41.1665Z" stroke="#191919" stroke-miterlimit="10"/>
<path d="M172.771 75.9333C172.771 75.9333 162.526 77.81 161.934 83.6718C161.343 89.5335 160.818 95.7691 160.818 95.7691C160.818 95.7691 161.193 98.872 165.207 99.6197C169.221 100.367 180.297 100.741 180.297 100.741C180.297 100.741 286.123 99.2309 301.947 100.741C309.151 101.01 317.486 99.9262 319.658 98.9617C321.83 97.9972 322.376 96.9729 322.316 95.343C322.256 93.713 320.804 82.0119 320.804 82.0119C320.804 82.0119 320.384 77.7502 310.05 75.9333" stroke="#191919" stroke-miterlimit="10"/>
<path d="M164.713 79.283C164.713 79.283 161.065 80.24 160.414 83.8288C160.062 86.9167 159.081 97.1299 159.081 97.1299C159.081 97.1299 158.916 99.7468 161.41 100.779C163.904 101.81 166.802 102.461 169.648 103.059C172.493 103.657 184.259 104.689 189.583 104.764C194.908 104.838 298.127 104.764 298.127 104.764C298.127 104.764 312.086 103.844 317.673 102.109C323.26 100.375 322.616 100.397 322.616 100.397C322.616 100.397 324.061 99.8664 323.941 97.6608C323.822 95.4551 322.608 83.298 322.608 83.298C322.608 83.298 322.211 81.0549 320.968 80.1727C319.725 79.2904 317.651 78.4456 317.651 78.4456" stroke="#191919" stroke-width="0.5" stroke-miterlimit="10"/>
<path d="M271.429 73.9373H212.402C209.953 73.9373 207.968 75.9189 207.968 78.3635V94.2366C207.968 96.6812 209.953 98.6628 212.402 98.6628H271.429C273.878 98.6628 275.863 96.6812 275.863 94.2366V78.3635C275.863 75.9189 273.878 73.9373 271.429 73.9373Z" stroke="#191919" stroke-width="0.5" stroke-miterlimit="10"/>
<path d="M213.443 98.5655V81.8849C213.443 79.8363 215.105 78.1689 217.165 78.1689H266.674C268.726 78.1689 270.396 79.8288 270.396 81.8849V98.5655" stroke="#191919" stroke-width="0.5" stroke-miterlimit="10"/>
<path d="M209.376 75.1335L214.139 79.7317V98.5657" stroke="#191919" stroke-width="0.5" stroke-miterlimit="10"/>
<path d="M274.2 75.1335L269.445 79.7317V98.5657" stroke="#191919" stroke-width="0.5" stroke-miterlimit="10"/>
<path d="M165.29 85.5484C165.29 85.5484 165.949 81.4736 171.707 80.0904C177.466 78.7072 190.662 77.2493 190.662 77.2493L196.571 76.6511C196.571 76.6511 202.914 77.3913 203.715 81.7577C203.79 86.2737 203.423 90.2737 203.423 90.2737C203.423 90.2737 203.206 95.3654 197.881 96.1729C192.557 96.9804 178.927 97.414 178.927 97.414C178.927 97.414 170.539 97.6234 167.027 96.3972C165.492 95.7392 164.758 94.4757 164.668 93.0401C164.578 91.6046 165.297 85.5484 165.297 85.5484H165.29Z" stroke="#191919" stroke-width="0.5" stroke-miterlimit="10"/>
<path d="M168.786 92.9357C168 92.2328 167.768 91.1039 168.165 90.1319C168.674 88.8758 169.917 86.9543 172.905 85.8402C177.593 84.0907 193.26 82.1916 197.634 82.9019C202.007 83.6122 203.595 85.9 201.131 88.3674C198.667 90.8347 194.054 91.6198 194.054 91.6198C194.054 91.6198 183.367 94.6329 178.567 94.8572C174.927 95.0217 172.636 94.6927 171.737 94.5282C171.438 94.4684 171.153 94.3787 170.868 94.2516C170.352 94.0123 169.468 93.5562 168.786 92.9431V92.9357Z" stroke="#191919" stroke-width="0.5" stroke-miterlimit="10"/>
<path d="M166.825 82.7522C166.825 82.7522 174.935 84.7784 175.669 94.9019" stroke="#191919" stroke-width="0.5" stroke-miterlimit="10"/>
<path d="M317.808 85.5484C317.808 85.5484 317.149 81.4736 311.39 80.0904C305.631 78.7072 292.436 77.2493 292.436 77.2493L286.527 76.6511C286.527 76.6511 280.184 77.3913 279.383 81.7577C279.308 86.2737 279.675 90.2737 279.675 90.2737C279.675 90.2737 279.892 95.3654 285.216 96.1729C290.541 96.9804 304.171 97.414 304.171 97.414C304.171 97.414 312.558 97.6234 316.071 96.3972C317.606 95.7392 318.34 94.4757 318.43 93.0401C318.52 91.6046 317.801 85.5484 317.801 85.5484H317.808Z" stroke="#191919" stroke-width="0.5" stroke-miterlimit="10"/>
<path d="M314.311 92.9357C315.097 92.2328 315.329 91.1039 314.932 90.1319C314.423 88.8758 313.18 86.9543 310.192 85.8402C305.504 84.0907 289.837 82.1916 285.464 82.9019C281.09 83.6122 279.502 85.9 281.966 88.3674C284.43 90.8347 289.043 91.6198 289.043 91.6198C289.043 91.6198 299.73 94.6329 304.53 94.8572C308.17 95.0217 310.462 94.6927 311.36 94.5282C311.66 94.4684 311.944 94.3787 312.229 94.2516C312.746 94.0123 313.629 93.5562 314.311 92.9431V92.9357Z" stroke="#191919" stroke-width="0.5" stroke-miterlimit="10"/>
<path d="M316.265 82.7522C316.265 82.7522 308.155 84.7784 307.421 94.9019" stroke="#191919" stroke-width="0.5" stroke-miterlimit="10"/>
<path d="M236.329 149.886C236.821 149.886 237.22 149.488 237.22 148.996C237.22 148.505 236.821 148.106 236.329 148.106C235.836 148.106 235.438 148.505 235.438 148.996C235.438 149.488 235.836 149.886 236.329 149.886Z" stroke="#191919" stroke-width="0.5" stroke-miterlimit="10"/>
<path d="M241.503 149.886C241.996 149.886 242.395 149.488 242.395 148.996C242.395 148.505 241.996 148.106 241.503 148.106C241.011 148.106 240.612 148.505 240.612 148.996C240.612 149.488 241.011 149.886 241.503 149.886Z" stroke="#191919" stroke-width="0.5" stroke-miterlimit="10"/>
<path d="M246.671 149.886C247.163 149.886 247.562 149.488 247.562 148.996C247.562 148.505 247.163 148.106 246.671 148.106C246.179 148.106 245.78 148.505 245.78 148.996C245.78 149.488 246.179 149.886 246.671 149.886Z" stroke="#191919" stroke-width="0.5" stroke-miterlimit="10"/>
<path d="M219.786 122.974C219.786 122.906 219.755 122.84 219.699 122.791C219.643 122.743 219.567 122.716 219.488 122.716H216.18C216.021 122.719 215.861 122.705 215.706 122.674C215.591 122.65 215.487 122.599 215.404 122.527C215.322 122.452 215.267 122.36 215.245 122.259C215.215 122.125 215.201 121.988 215.204 121.85V121.742H218.993C219.072 121.742 219.148 121.715 219.204 121.667C219.26 121.618 219.291 121.553 219.291 121.484V121.215C219.291 121.147 219.26 121.081 219.204 121.032C219.148 120.984 219.072 120.957 218.993 120.957H215.204V120.893C215.201 120.753 215.216 120.614 215.248 120.477C215.271 120.376 215.326 120.284 215.407 120.209C215.491 120.139 215.595 120.091 215.709 120.069C215.865 120.039 216.024 120.025 216.184 120.028H219.491C219.57 120.028 219.646 120.001 219.702 119.952C219.758 119.904 219.79 119.838 219.79 119.769V119.4C219.79 119.332 219.758 119.266 219.702 119.217C219.646 119.169 219.57 119.142 219.491 119.142H216.161C215.842 119.136 215.523 119.168 215.213 119.235C214.975 119.286 214.756 119.387 214.576 119.53C214.405 119.673 214.28 119.852 214.214 120.05C214.132 120.303 214.094 120.564 214.1 120.827V121.923C214.094 122.186 214.132 122.449 214.214 122.702C214.279 122.901 214.404 123.082 214.576 123.225C214.755 123.369 214.975 123.471 215.213 123.521C215.523 123.586 215.842 123.616 216.161 123.611H219.491C219.57 123.611 219.646 123.583 219.702 123.535C219.758 123.487 219.79 123.421 219.79 123.352L219.786 122.974Z" fill="#191919"/>
<path d="M235.974 122.974C235.974 122.906 235.943 122.84 235.887 122.791C235.831 122.743 235.755 122.716 235.675 122.716H232.368C232.208 122.719 232.049 122.705 231.893 122.674C231.779 122.65 231.675 122.599 231.591 122.527C231.51 122.452 231.455 122.36 231.433 122.259C231.401 122.122 231.386 121.982 231.388 121.841V121.734H235.172C235.251 121.734 235.327 121.706 235.383 121.658C235.439 121.609 235.471 121.544 235.471 121.475V121.215C235.468 121.148 235.436 121.084 235.38 121.037C235.324 120.99 235.25 120.964 235.172 120.964H231.383V120.901C231.381 120.761 231.395 120.621 231.428 120.484C231.45 120.384 231.505 120.291 231.586 120.217C231.67 120.147 231.775 120.098 231.888 120.077C232.044 120.046 232.203 120.032 232.363 120.035H235.684C235.763 120.035 235.839 120.008 235.895 119.959C235.951 119.911 235.983 119.845 235.983 119.777V119.407C235.983 119.339 235.951 119.273 235.895 119.225C235.839 119.176 235.763 119.149 235.684 119.149H232.354C232.035 119.144 231.716 119.175 231.405 119.242C231.168 119.293 230.949 119.395 230.769 119.537C230.598 119.681 230.473 119.86 230.407 120.057C230.325 120.31 230.286 120.572 230.293 120.834V121.93C230.287 122.193 230.325 122.456 230.407 122.71C230.472 122.909 230.597 123.089 230.769 123.233C230.948 123.377 231.167 123.478 231.405 123.528C231.716 123.593 232.035 123.624 232.354 123.618H235.684C235.763 123.618 235.839 123.591 235.895 123.542C235.951 123.494 235.983 123.428 235.983 123.36L235.974 122.974Z" fill="#191919"/>
<path d="M253.498 122.988C253.498 122.919 253.467 122.853 253.411 122.805C253.355 122.756 253.279 122.729 253.2 122.729H249.892C249.733 122.732 249.573 122.718 249.418 122.688C249.304 122.665 249.2 122.617 249.116 122.547C249.034 122.473 248.979 122.381 248.957 122.28C248.925 122.143 248.91 122.002 248.913 121.862V121.754H252.701C252.781 121.754 252.857 121.727 252.913 121.679C252.969 121.63 253 121.564 253 121.496V121.229C253 121.16 252.969 121.094 252.913 121.046C252.857 120.997 252.781 120.97 252.701 120.97H248.913V120.907C248.91 120.766 248.925 120.626 248.957 120.489C248.979 120.388 249.034 120.295 249.116 120.221C249.199 120.149 249.303 120.098 249.418 120.074C249.573 120.044 249.733 120.03 249.892 120.032H253.2C253.279 120.032 253.355 120.005 253.411 119.957C253.467 119.908 253.498 119.842 253.498 119.774V119.414C253.498 119.345 253.467 119.279 253.411 119.231C253.355 119.182 253.279 119.155 253.2 119.155H249.87C249.55 119.15 249.23 119.181 248.919 119.247C248.682 119.298 248.464 119.4 248.283 119.542C248.112 119.684 247.988 119.863 247.923 120.06C247.84 120.313 247.801 120.575 247.808 120.837V121.933C247.801 122.197 247.84 122.46 247.923 122.714C247.988 122.913 248.112 123.093 248.283 123.237C248.463 123.38 248.682 123.482 248.919 123.532C249.231 123.597 249.55 123.626 249.87 123.621H253.2C253.279 123.621 253.355 123.594 253.411 123.545C253.467 123.497 253.498 123.431 253.498 123.363V122.988Z" fill="#191919"/>
<path d="M259.104 120.103C259.097 120.089 259.085 120.077 259.069 120.069C259.054 120.061 259.035 120.057 259.017 120.059H258.98C258.963 120.059 258.947 120.063 258.932 120.071C258.918 120.079 258.907 120.09 258.9 120.103L256.852 123.414C256.815 123.474 256.759 123.525 256.692 123.56C256.624 123.595 256.547 123.614 256.468 123.614H255.882C255.839 123.614 255.796 123.604 255.758 123.585C255.72 123.566 255.688 123.539 255.666 123.507C255.644 123.475 255.631 123.438 255.63 123.4C255.629 123.362 255.64 123.325 255.66 123.292L257.964 119.635C258.046 119.482 258.17 119.348 258.325 119.245C258.449 119.18 258.592 119.148 258.738 119.151H259.164C259.329 119.145 259.493 119.177 259.639 119.245C259.799 119.345 259.927 119.48 260.011 119.635L262.202 123.067L262.34 123.287C262.361 123.321 262.371 123.358 262.37 123.396C262.369 123.434 262.357 123.471 262.334 123.503C262.312 123.536 262.28 123.562 262.242 123.581C262.204 123.6 262.161 123.609 262.117 123.609H261.583C261.505 123.609 261.428 123.591 261.361 123.557C261.294 123.522 261.238 123.473 261.2 123.414L259.104 120.103Z" fill="#191919"/>
<path d="M227.939 122.955C227.939 122.887 227.908 122.821 227.852 122.772C227.796 122.724 227.72 122.697 227.64 122.697H224.35C224.19 122.7 224.03 122.686 223.874 122.655C223.761 122.632 223.658 122.58 223.577 122.508C223.497 122.432 223.443 122.34 223.418 122.24C223.383 122.101 223.367 121.959 223.37 121.816V119.375C223.37 119.307 223.339 119.241 223.283 119.192C223.227 119.144 223.151 119.117 223.072 119.117H222.543C222.463 119.117 222.387 119.144 222.331 119.192C222.275 119.241 222.244 119.307 222.244 119.375V121.92C222.237 122.183 222.276 122.446 222.358 122.7C222.423 122.898 222.547 123.079 222.718 123.222C222.898 123.366 223.117 123.468 223.355 123.518C223.666 123.583 223.986 123.613 224.306 123.608H227.64C227.72 123.608 227.796 123.581 227.852 123.532C227.908 123.484 227.939 123.418 227.939 123.349V122.955Z" fill="#191919"/>
<path d="M240.232 119.34C240.232 119.305 240.225 119.272 240.209 119.24C240.194 119.209 240.172 119.18 240.144 119.156C240.116 119.132 240.083 119.113 240.047 119.1C240.01 119.087 239.971 119.081 239.932 119.081H239.405C239.325 119.081 239.249 119.108 239.193 119.157C239.137 119.205 239.106 119.271 239.106 119.34V119.635L239.121 123.354C239.121 123.422 239.153 123.488 239.209 123.536C239.265 123.585 239.341 123.612 239.42 123.612H239.949C240.028 123.612 240.104 123.585 240.16 123.536C240.216 123.488 240.248 123.422 240.248 123.354L240.232 119.34Z" fill="#191919"/>
<path d="M244.765 119.34C244.765 119.271 244.734 119.205 244.678 119.157C244.622 119.108 244.546 119.081 244.466 119.081H243.939C243.9 119.081 243.861 119.087 243.824 119.1C243.788 119.113 243.755 119.132 243.727 119.156C243.699 119.18 243.677 119.209 243.662 119.24C243.646 119.272 243.639 119.305 243.639 119.34V119.635L243.656 123.354C243.656 123.422 243.687 123.488 243.743 123.536C243.799 123.585 243.875 123.612 243.954 123.612H244.482C244.521 123.612 244.56 123.606 244.597 123.593C244.633 123.58 244.666 123.561 244.694 123.537C244.722 123.513 244.744 123.484 244.759 123.453C244.774 123.421 244.782 123.388 244.782 123.354L244.765 119.34Z" fill="#191919"/>
<path d="M239.708 120.745C239.629 120.745 239.553 120.773 239.497 120.821C239.441 120.87 239.41 120.935 239.41 121.004V121.462C239.41 121.53 239.441 121.596 239.497 121.644C239.553 121.693 239.629 121.72 239.708 121.72H240.05L244.286 121.707C244.365 121.707 244.442 121.68 244.498 121.631C244.554 121.582 244.586 121.516 244.586 121.447V120.991C244.586 120.957 244.578 120.923 244.563 120.891C244.548 120.86 244.526 120.831 244.498 120.807C244.47 120.783 244.437 120.764 244.4 120.751C244.364 120.739 244.325 120.732 244.286 120.732L239.708 120.745Z" fill="#191919"/>
<path d="M264.508 121.577C264.508 121.543 264.516 121.51 264.531 121.478C264.546 121.447 264.568 121.419 264.595 121.395C264.623 121.371 264.656 121.352 264.692 121.339C264.729 121.326 264.767 121.32 264.806 121.32H268.111C268.27 121.323 268.43 121.308 268.585 121.277C268.698 121.255 268.803 121.207 268.887 121.138C268.968 121.063 269.022 120.97 269.044 120.87C269.075 120.735 269.075 120.597 269.044 120.463C269.022 120.363 268.967 120.271 268.887 120.196C268.803 120.127 268.699 120.078 268.585 120.056C268.429 120.025 268.27 120.011 268.111 120.014H264.803C264.724 120.014 264.648 119.987 264.592 119.939C264.536 119.89 264.504 119.825 264.504 119.756V119.387C264.504 119.318 264.536 119.252 264.592 119.204C264.648 119.156 264.724 119.128 264.803 119.128H268.131C268.451 119.123 268.771 119.154 269.082 119.221C269.319 119.273 269.537 119.375 269.718 119.517C269.889 119.66 270.013 119.839 270.078 120.037C270.155 120.457 270.155 120.886 270.078 121.307C270.013 121.505 269.889 121.685 269.718 121.829C269.538 121.973 269.319 122.074 269.082 122.125C268.77 122.189 268.451 122.219 268.131 122.213H264.803C264.724 122.213 264.648 122.186 264.592 122.138C264.536 122.089 264.504 122.024 264.504 121.955L264.508 121.577Z" fill="#191919"/>
<path d="M265.634 121.617C265.634 121.548 265.602 121.483 265.546 121.435C265.49 121.386 265.415 121.359 265.336 121.358H264.806C264.727 121.358 264.651 121.386 264.595 121.434C264.539 121.483 264.508 121.548 264.508 121.617V121.912L264.523 123.349C264.523 123.418 264.555 123.483 264.611 123.532C264.667 123.58 264.743 123.608 264.822 123.608H265.351C265.43 123.608 265.506 123.58 265.562 123.532C265.618 123.483 265.65 123.418 265.65 123.349L265.634 121.617Z" fill="#191919"/>
<path d="M268.701 123.392C268.739 123.451 268.794 123.501 268.861 123.535C268.928 123.57 269.005 123.588 269.083 123.588H269.618C269.661 123.588 269.705 123.579 269.743 123.56C269.781 123.541 269.813 123.514 269.835 123.481C269.857 123.449 269.87 123.412 269.87 123.374C269.871 123.336 269.861 123.298 269.839 123.265L269.703 123.046L268.623 121.358H267.413L268.701 123.392Z" fill="#191919"/>
<path d="M173.5 66C184.09 60.4175 195.882 57.5 207.853 57.5H241.75H272.848C284.09 57.5 295.223 59.7041 305.617 63.9877L310.5 66" stroke="black" stroke-width="0.5"/>
</g>
<g clip-path="url(#clip2_40006119_13966)">
<path d="M62.6201 215.73H28.4766L49.4692 181.285C49.4692 181.285 51.1648 179.648 51.6522 178.254C52.1397 176.86 55.6738 169.27 63.0122 169.27C70.3507 169.27 73.4026 174.197 75.0822 177.984C75.7128 180.296 77.1645 181.285 77.1645 181.285L98.5175 215.73H66.7053L66.0112 184.483L62.6201 215.73Z" stroke="#191919" stroke-miterlimit="10"/>
<path d="M32 215.5L51.0328 183.251V179.697H75.5543L75.8033 183.251L96 215.5" stroke="#191919" stroke-width="0.5" stroke-miterlimit="10"/>
<path d="M51.0322 179.697L53.2629 178.47H73.1111L75.5537 179.697" stroke="#191919" stroke-width="0.5" stroke-miterlimit="10"/>
<path d="M53.2637 178.47C53.2637 178.47 55.4943 170.842 63.2937 170.842C71.0932 170.842 73.1119 178.47 73.1119 178.47" stroke="#191919" stroke-width="0.5" stroke-miterlimit="10"/>
<path d="M59.0654 178.416C59.0654 178.416 59.3357 173.625 63.4102 173.625C67.4848 173.625 67.755 178.416 67.755 178.416" stroke="#191919" stroke-miterlimit="10"/>
<path d="M51.0322 183.251H75.8028" stroke="#191919" stroke-width="0.5" stroke-miterlimit="10"/>
</g>
<g clip-path="url(#clip3_40006119_13966)">
<path d="M191.205 179.697L188.772 178.47H168.996L166.779 179.697H191.205Z" stroke="#191919" stroke-width="0.5" stroke-miterlimit="10"/>
<path d="M168.996 178.47C168.996 178.47 171.218 170.842 178.987 170.842C186.756 170.842 188.767 178.47 188.767 178.47" stroke="#191919" stroke-width="0.5" stroke-miterlimit="10"/>
<path d="M174.78 178.416C174.78 178.416 175.049 173.625 179.108 173.625C183.167 173.625 183.436 178.416 183.436 178.416" stroke="#191919" stroke-miterlimit="10"/>
<path d="M144.264 215.73H213.736C213.736 215.73 213.9 196.946 200.051 187.022C194.672 183.267 193.939 183.019 193.939 183.019C193.939 183.019 192.282 181.949 191.4 179.599C190.519 177.249 187.669 169.27 179.177 169.27H178.818C170.326 169.27 167.481 177.249 166.6 179.599C165.718 181.949 164.061 183.019 164.061 183.019C164.061 183.019 163.327 183.267 157.949 187.022C144.1 196.946 144.264 215.73 144.264 215.73Z" stroke="#191919" stroke-miterlimit="10"/>
<path d="M148.217 215.73V213.088C148.217 213.088 148.074 196.444 160.345 187.649C165.111 184.321 165.76 184.099 165.76 184.099C165.76 184.099 166.937 182.684 166.858 180.177H191.157C191.157 183.051 192.234 184.099 192.234 184.099C192.234 184.099 192.883 184.321 197.649 187.649C209.925 196.444 209.778 213.088 209.778 213.088V215.73" stroke="#191919" stroke-width="0.5" stroke-miterlimit="10"/>
<path d="M166.41 182.905H191.675" stroke="#191919" stroke-width="0.5" stroke-miterlimit="10"/>
<path d="M152.735 192.884C152.767 193.235 153.068 193.499 153.411 193.472C154.097 193.418 155.4 193.024 157.337 191.236C159.021 189.68 159.454 188.616 159.507 187.978C159.544 187.514 159.116 187.141 158.673 187.227C158.06 187.346 156.989 187.789 155.305 189.172C152.962 191.095 152.672 192.16 152.735 192.884Z" stroke="#191919" stroke-width="0.5" stroke-miterlimit="10"/>
<path d="M205.091 192.884C205.059 193.235 204.759 193.499 204.416 193.472C203.729 193.418 202.426 193.024 200.489 191.236C198.805 189.68 198.372 188.616 198.32 187.978C198.283 187.514 198.71 187.141 199.154 187.227C199.766 187.346 200.837 187.789 202.521 189.172C204.864 191.095 205.154 192.16 205.091 192.884Z" stroke="#191919" stroke-width="0.5" stroke-miterlimit="10"/>
<path d="M168.6 186.287C168.6 186.287 170.347 185.12 172.542 185.779C175.218 186.579 174.775 188.913 174.775 188.913C174.775 188.913 174.141 192.197 169.924 193.472C166.995 194.358 165.201 193.245 164.821 192.089C164.409 190.836 164.995 189.237 165.897 188.313C166.8 187.389 168.6 186.282 168.6 186.282V186.287Z" stroke="#191919" stroke-width="0.5" stroke-miterlimit="10"/>
<path d="M165.196 192.743C165.196 192.743 167.218 189.588 169.899 188.837C172.58 188.086 173.678 189.086 173.678 189.086C173.678 189.086 174.359 189.61 174.047 190.544" stroke="#191919" stroke-width="0.5" stroke-miterlimit="10"/>
<path d="M184.181 190.696C183.933 190.291 183.758 189.842 183.674 189.372C183.479 188.227 183.521 186.152 186.202 185.58C189.97 184.775 192.425 188.556 192.425 188.556C192.425 188.556 194.119 191.922 192.425 193.354C190.73 194.785 186.92 193.354 186.92 193.354C186.92 193.354 185.405 192.727 184.175 190.69L184.181 190.696Z" stroke="#191919" stroke-width="0.5" stroke-miterlimit="10"/>
<path d="M183.764 189.729C183.764 189.729 185.827 188.2 188.408 189.021C190.989 189.842 192.915 192.738 192.915 192.738" stroke="#191919" stroke-width="0.5" stroke-miterlimit="10"/>
</g>
<g clip-path="url(#clip4_40006119_13966)">
<path d="M306.879 179.697L304.411 178.47H284.353L282.104 179.697H306.879Z" stroke="#191919" stroke-width="0.5" stroke-miterlimit="10"/>
<path d="M284.353 178.47C284.353 178.47 286.606 170.842 294.486 170.842C302.366 170.842 304.406 178.47 304.406 178.47" stroke="#191919" stroke-width="0.5" stroke-miterlimit="10"/>
<path d="M290.22 178.416C290.22 178.416 290.493 173.625 294.609 173.625C298.726 173.625 298.999 178.416 298.999 178.416" stroke="#191919" stroke-miterlimit="10"/>
<path d="M259.268 215.73H329.732C329.732 215.73 329.898 196.946 315.851 187.022C310.396 183.267 309.652 183.019 309.652 183.019C309.652 183.019 307.971 181.949 307.077 179.599C306.183 177.249 303.293 169.27 294.679 169.27H294.315C285.702 169.27 282.817 177.249 281.923 179.599C281.029 181.949 279.348 183.019 279.348 183.019C279.348 183.019 278.604 183.267 273.149 187.022C259.102 196.946 259.268 215.73 259.268 215.73Z" stroke="#191919" stroke-miterlimit="10"/>
<path d="M263.277 215.73V213.088C263.277 213.088 263.133 196.444 275.579 187.649C280.413 184.321 281.072 184.099 281.072 184.099C281.072 184.099 282.265 182.684 282.185 180.177H306.831C306.831 183.051 307.923 184.099 307.923 184.099C307.923 184.099 308.582 184.321 313.416 187.649C325.867 196.444 325.718 213.088 325.718 213.088V215.73" stroke="#191919" stroke-width="0.5" stroke-miterlimit="10"/>
<path d="M281.729 182.905H307.355" stroke="#191919" stroke-width="0.5" stroke-miterlimit="10"/>
</g>
<path d="M337 153L337.21 153.858C337.565 155.305 338.695 156.435 340.142 156.79L341 157L340.142 157.21C338.695 157.565 337.565 158.695 337.21 160.142L337 161L336.79 160.142C336.435 158.695 335.305 157.565 333.858 157.21L333 157L333.858 156.79C335.305 156.435 336.435 155.305 336.79 153.858L337 153Z" fill="#E3BE8A"/>
<path d="M100 160L100.21 160.858C100.565 162.305 101.695 163.435 103.142 163.79L104 164L103.142 164.21C101.695 164.565 100.565 165.695 100.21 167.142L100 168L99.7897 167.142C99.4347 165.695 98.3048 164.565 96.8576 164.21L96 164L96.8576 163.79C98.3048 163.435 99.4347 162.305 99.7897 160.858L100 160Z" fill="#E3BE8A"/>
<defs>
<clipPath id="clip0_40006119_13966">
<rect width="103" height="129" fill="white" transform="translate(28 24)"/>
</clipPath>
<clipPath id="clip1_40006119_13966">
<rect width="177" height="131" fill="white" transform="translate(153 24)"/>
</clipPath>
<clipPath id="clip2_40006119_13966">
<rect width="71" height="48" fill="white" transform="translate(28 168)"/>
</clipPath>
<clipPath id="clip3_40006119_13966">
<rect width="70" height="48" fill="white" transform="translate(144 168)"/>
</clipPath>
<clipPath id="clip4_40006119_13966">
<rect width="71" height="48" fill="white" transform="translate(259 168)"/>
</clipPath>
</defs>
</svg>
